<svg display="block" width="100%" height="100%" viewBox="0 0 28 21" version="1.1" data-di-res-id="c30b350c-4d352601" data-di-rand="1589126491861" xmlns="http://www.w3.org/2000/svg"><defs><polygon id="path-1" points="0 0.552809091 14.5767378 0.552809091 14.5767378 14.6361727 0 14.6361727"></polygon><polygon id="path-3" points="0.265751111 0.524172727 13.3597333 0.524172727 13.3597333 18.4543545 0.265751111 18.4543545"></polygon></defs><g stroke="none" stroke-width="1" fill="none" fill-rule="evenodd"><polygon fill="#FFD000" points="13.67072 -0.000190909091 13.6669867 0.00235454545 13.6738311 0.00235454545"></polygon><g><path d="M7.74125333,6.74984545 C7.74125333,6.68111818 7.62925333,4.01475455 7.59005333,3.07675455 L0.000186666667,6.91657273 L14.5763644,14.6668455 L14.5763644,9.97302727 C14.3318311,9.98893636 14.0848089,9.99975455 13.8352978,9.99975455 C10.7061422,9.99975455 7.74125333,8.66657273 7.74125333,6.74984545" fill="#FFCF00"></path><g transform="translate(0.000000, 6.363636)"><mask id="mask-2" fill="white"><use xlink:href="#path-1"></use></mask><polygon id="Fill-4" fill="#E9AC05" mask="url(#mask-2)" points="-6.22222222e-05 6.63644545 14.5767378 14.6361727 14.5767378 8.30308182 -6.22222222e-05 0.552809091"></polygon></g><path d="M13.7529778,0 C13.7268444,0 13.7007111,0.00127272727 13.6745778,0.00190909091 L13.6671111,0.00190909091 C10.4104,0.0222727273 7.65831111,1.18045455 7.5768,2.74972727 C7.5768,2.74972727 7.58177778,2.87636364 7.59048889,3.07618182 C7.62968889,4.01481818 7.74106667,6.68118182 7.74106667,6.74990909 C7.74106667,8.66663636 10.7059556,9.99981818 13.8351111,9.99981818 C14.0852444,9.99981818 14.3316444,9.989 14.5768,9.97309091 L14.5768,5.97036364 C14.3073778,5.98754545 14.0342222,6.00027273 13.7529778,6.00027273 C10.4589333,6.00027273 7.90595556,4.66645455 7.98808889,3.16654545 C7.99431111,3.05772727 8.01671111,2.95081818 8.04844444,2.84454545 C8.40124444,1.65072727 10.3158222,0.675181818 12.7568,0.462636364 C13.0809778,0.434 13.4126222,0.416818182 13.7529778,0.416818182 C14.0336,0.416818182 14.3067556,0.430181818 14.5768,0.449272727 L14.5768,0.442272727 L14.5768,0.0292727273 C14.3055111,0.0120909091 14.0317333,0 13.7529778,0" id="Fill-7" fill="#E9AC05"></path><path d="M14.5766133,0.442145455 L14.5766133,0.0297818182" stroke-linecap="round" stroke-linejoin="round"></path><path d="M12.7567378,0.462381818 C10.31576,0.674927273 8.40118222,1.65047273 8.04838222,2.84492727 C8.01664889,2.95056364 7.99424889,3.05747273 7.98802667,3.16692727 C7.90589333,4.66683636 10.4588711,6.00001818 13.7529156,6.00001818 C14.03416,6.00001818 14.3073156,5.98792727 14.5767378,5.97010909 L14.5767378,0.449018182 C14.3066933,0.429927273 14.0335378,0.416563636 13.7529156,0.416563636 C13.41256,0.416563636 13.0809156,0.434381818 12.7567378,0.462381818" id="Fill-11" fill="#FFCF00"></path><g transform="translate(14.311111, 2.545455)"><mask id="mask-4" fill="white"><use xlink:href="#path-3"></use></mask><path d="M5.64859556,0.524172727 C5.68344,0.920627273 5.61810667,1.28780909 5.61810667,1.28780909 L5.61810667,4.20426364 C5.61810667,5.97208182 3.16592889,7.24099091 0.265751111,7.42808182 L0.265751111,12.1212636 L0.265751111,18.4543545 L13.3597956,10.3712636 L13.3597956,4.28826364 L5.64859556,0.524172727 Z" fill="#EBEBEB" mask="url(#mask-4)"></path></g><path d="M19.92928,6.74984545 L19.92928,3.83339091 C19.92928,3.83339091 19.9939911,3.46557273 19.9597689,3.06975455 C19.9392356,2.83939091 19.8857244,2.60011818 19.7643911,2.41684545 C19.4657244,1.20520909 17.2618133,0.203572727 14.5763022,0.0292090909 L14.5763022,0.442209091 L14.5763022,0.449209091 C14.5819022,0.449845455 14.5881244,0.450481818 14.5937244,0.450481818 C17.0907022,0.633754545 19.0687467,1.61248182 19.4489244,2.8203 C19.4843911,2.93420909 19.5111467,3.04939091 19.5179911,3.16648182 C19.59328,4.61484545 17.4609244,5.7813 14.5763022,5.9703 L14.5763022,9.97302727 C17.4771022,9.78593636 19.92928,8.51766364 19.92928,6.74984545" fill="#D4D3D3"></path><path d="M19.5179289,3.16660909 C19.5110844,3.04888182 19.4843289,2.93433636 19.4488622,2.82042727 C19.0686844,1.61260909 17.0912622,0.633881818 14.5936622,0.450609091 C14.5880622,0.449972727 14.58184,0.449972727 14.5768622,0.449336364 L14.5768622,5.97042727 C17.4608622,5.78079091 19.5932178,4.61497273 19.5179289,3.16660909" fill="#EBEBEB"></path></g></g></svg>