<svg width="25px" height="25px" viewBox="0 0 45 33" xmlns="http://www.w3.org/2000/svg"><g stroke="none" stroke-width="1" fill="none" fill-rule="evenodd"><polygon fill="#EBEBEB" fill-rule="nonzero" points="22.2352941 0 44.7352941 10.7380952 44.7352941 20.297619 23.6911765 33 0.264705882 20.4285714 0.264705882 10.8690476"></polygon><polygon fill="#D4D3D3" fill-rule="nonzero" points="23.6911765 23.047619 23.6911765 33 0.264705882 20.4285714 0.264705882 10.8690476"></polygon><path d="M32.0294118,3.79761905 C31.5,1.70238095 27.2647059,0 22.3676471,0 C17.0735294,0 12.5735294,1.83333333 12.4411765,4.32142857 C12.4411765,4.32142857 12.7058824,10.4761905 12.7058824,10.6071429 C12.7058824,13.6190476 17.4705882,15.7142857 22.5,15.7142857 C27.6617647,15.7142857 32.2941176,13.6190476 32.2941176,10.6071429 C32.2941176,10.3452381 32.2941176,6.94047619 32.2941176,6.02380952 C32.2941176,6.02380952 32.5588235,4.58333333 32.0294118,3.79761905 Z" fill="#D4D3D3" fill-rule="nonzero"></path><path d="M13.1029412,4.97619048 C13.2352941,2.61904762 17.3382353,0.654761905 22.3676471,0.654761905 C27.3970588,0.654761905 31.5,2.61904762 31.6323529,4.97619048 C31.7647059,7.46428571 27.6617647,9.42857143 22.3676471,9.42857143 C17.0735294,9.42857143 12.9705882,7.33333333 13.1029412,4.97619048 Z" fill="#EBEBEB" fill-rule="nonzero"></path></g></svg>