<svg display="block" width="100%" height="100%" viewBox="0 0 28 27" xmlns="http://www.w3.org/2000/svg"><g stroke="none" stroke-width="1"><g fill="#FFCF00" fill-rule="nonzero"><path d="M13.7254902,23.0326531 L13.7254902,0 C12.627451,0 12.0784314,1.10204082 12.0784314,1.10204082 L8.83921569,7.65918367 L1.64705882,8.76122449 C1.64705882,8.76122449 0.439215686,8.92653061 0.109803922,9.97346939 C-0.219607843,11.0204082 0.658823529,11.9020408 0.658823529,11.9020408 L5.92941176,17.0816327 L4.55686275,24.244898 C4.55686275,24.244898 4.3372549,25.4571429 5.21568627,26.1183673 C6.09411765,26.7795918 7.19215686,26.2285714 7.19215686,26.2285714 L13.7254902,23.0326531 Z"></path></g><g transform="translate(13.725490, 0.000000)" fill="#CCCCCC" fill-rule="nonzero"><path d="M13.6705882,9.97346939 C13.3411765,8.92653061 12.1333333,8.76122449 12.1333333,8.76122449 L4.94117647,7.65918367 L1.64705882,1.10204082 C1.64705882,1.10204082 1.09803922,0 0,0 C0,0 0,0 0,0 L0,23.0326531 L6.64313725,26.2836735 C6.64313725,26.2836735 7.74117647,26.8346939 8.61960784,26.1734694 C9.49803922,25.5122449 9.27843137,24.3 9.27843137,24.3 L7.90588235,17.1367347 L13.1764706,11.9571429 C13.1215686,11.9020408 14,11.0204082 13.6705882,9.97346939 Z"></path></g></g></svg>